<?xml version="1.0" standalone="no"?>
<!DOCTYPE svg PUBLIC "-//W3C//DTD SVG 20010904//EN"
 "http://www.w3.org/TR/2001/REC-SVG-20010904/DTD/svg10.dtd">
<svg version="1.0" xmlns="http://www.w3.org/2000/svg"
 width="700.000000pt" height="700.000000pt" viewBox="0 0 700.000000 700.000000"
 preserveAspectRatio="xMidYMid meet">
<metadata>
Created by potrace 1.14, written by Peter Selinger 2001-2017
</metadata>
<g transform="translate(0.000000,700.000000) scale(0.100000,-0.100000)"
fill="#000000" stroke="none">
<path d="M2231 6643 c26 -71 43 -130 38 -131 -8 -3 -195 27 -266 43 -13 3 -33
7 -45 10 -80 16 -372 105 -461 140 -17 7 -18 3 -12 -61 4 -38 9 -71 10 -74 2
-3 6 -34 10 -70 4 -36 9 -68 11 -71 2 -3 6 -19 8 -35 12 -62 16 -80 42 -167
33 -112 72 -207 129 -314 l44 -84 -82 -82 c-91 -92 -135 -168 -167 -290 -18
-68 -19 -124 -19 -971 -1 -495 -3 -901 -4 -902 -2 -2 -31 5 -66 16 -34 10 -83
21 -108 25 -26 3 -50 8 -54 11 -22 13 -218 32 -309 29 -153 -4 -224 -36 -256
-112 -20 -46 -17 -81 10 -138 42 -91 183 -224 366 -345 77 -50 305 -170 372
-195 l47 -17 4 -542 c1 -297 6 -554 11 -571 54 -216 195 -374 404 -453 61 -23
84 -26 257 -30 105 -2 191 -5 193 -7 1 -1 -4 -38 -11 -81 -21 -121 -11 -220
30 -318 14 -34 29 -66 34 -72 6 -7 -5 -15 -34 -23 -192 -57 -317 -145 -317
-223 0 -70 123 -157 300 -213 95 -29 276 -70 360 -80 30 -4 57 -8 60 -10 3 -2
39 -6 80 -10 41 -4 86 -9 100 -10 107 -13 275 -19 510 -19 273 0 426 8 580 29
19 2 55 7 80 10 320 41 582 127 679 223 41 41 43 46 38 89 -10 91 -131 166
-377 233 l-65 18 50 2 c135 4 276 52 332 112 22 23 51 84 48 103 -10 84 -64
153 -165 213 l-55 32 128 0 c152 0 243 18 340 66 123 62 211 151 275 279 60
119 63 145 63 725 l0 527 37 13 c58 20 239 112 327 165 204 124 380 281 426
380 37 79 16 166 -48 206 -90 56 -295 61 -513 14 -14 -3 -39 -8 -56 -10 -17
-3 -43 -9 -58 -15 -14 -5 -26 -7 -26 -4 0 2 -8 1 -17 -4 -10 -5 -30 -12 -45
-16 l-27 -6 -1 892 c0 491 -2 907 -4 923 -11 95 -82 253 -145 322 -50 54 -139
122 -194 146 -111 51 -144 58 -290 62 -65 2 -120 5 -123 8 -3 2 -6 13 -8 23
-17 89 -69 209 -123 282 -122 169 -352 297 -603 337 -19 3 -42 7 -50 10 -31 8
-233 22 -445 30 -82 3 -195 8 -250 10 -153 7 -343 21 -395 30 -14 2 -45 7 -70
10 -86 11 -216 36 -358 71 -79 19 -147 34 -151 34 -4 0 13 -57 40 -127z m1586
-5446 c71 -89 218 -238 283 -284 30 -22 84 -52 120 -67 58 -24 61 -26 25 -21
-22 4 -58 8 -80 11 -22 3 -47 7 -55 9 -8 3 -44 7 -80 10 -36 4 -72 8 -80 10
-42 11 -275 20 -525 20 -256 -1 -339 -4 -522 -21 l-63 -6 0 29 c0 16 8 38 18
49 37 41 141 182 186 252 l47 72 339 0 338 0 49 -63z"/>
</g>
</svg>
